<svg width="16" height="14" viewBox="0 0 16 14" fill="none" xmlns="http://www.w3.org/2000/svg">
<path d="M13.7482 8.8111H13.2482V9.3111V10.4667C13.2482 10.4887 13.2395 10.5089 13.2254 10.5232C13.2114 10.5373 13.1933 10.5444 13.1754 10.5444C13.1575 10.5444 13.1394 10.5373 13.1254 10.5232C13.1113 10.5089 13.1026 10.4887 13.1026 10.4667V9.3111V8.8111H12.6026H11.4569C11.439 8.8111 11.421 8.80396 11.407 8.78984C11.3928 8.77558 11.3841 8.75533 11.3841 8.73332C11.3841 8.71131 11.3928 8.69105 11.407 8.67679C11.421 8.66268 11.439 8.65554 11.4569 8.65554H12.6026H13.1026V8.15554V6.99998C13.1026 6.97797 13.1113 6.95772 13.1254 6.94346C13.1394 6.92935 13.1575 6.92221 13.1754 6.92221C13.1933 6.92221 13.2114 6.92934 13.2254 6.94346C13.2395 6.95772 13.2482 6.97797 13.2482 6.99998V8.15554V8.65554H13.7482H14.8938C14.9118 8.65554 14.9298 8.66268 14.9438 8.67679C14.958 8.69105 14.9667 8.7113 14.9667 8.73332C14.9667 8.75533 14.958 8.77558 14.9438 8.78984C14.9298 8.80396 14.9118 8.8111 14.8938 8.8111H13.7482ZM3.36464 2.95554V2.45554H2.86464H1.719C1.70109 2.45554 1.68303 2.4484 1.66903 2.43429C1.65489 2.42002 1.64618 2.39977 1.64618 2.37776C1.64618 2.35575 1.65489 2.3355 1.66903 2.32124C1.68303 2.30712 1.70109 2.29998 1.719 2.29998H2.86464H3.36464V1.79998V0.644428C3.36464 0.622417 3.37335 0.602166 3.38749 0.587904L3.03242 0.235878L3.38749 0.587904C3.40148 0.573789 3.41954 0.56665 3.43746 0.56665C3.45537 0.56665 3.47344 0.573788 3.48743 0.587904C3.50157 0.602166 3.51028 0.622417 3.51028 0.644428V1.79998V2.29998H4.01028H5.15592C5.17383 2.29998 5.19189 2.30712 5.20589 2.32124C5.22003 2.3355 5.22874 2.35575 5.22874 2.37776C5.22874 2.39977 5.22003 2.42002 5.20589 2.43429C5.19189 2.4484 5.17383 2.45554 5.15592 2.45554H4.01028H3.51028V2.95554V4.11109C3.51028 4.13311 3.50157 4.15336 3.48743 4.16762C3.47344 4.18173 3.45538 4.18887 3.43746 4.18887C3.41954 4.18887 3.40148 4.18173 3.38749 4.16762C3.37335 4.15336 3.36464 4.13311 3.36464 4.11109V2.95554ZM9.81129 11.6222V12.1222H10.3113H10.8841C10.902 12.1222 10.9201 12.1293 10.9341 12.1435C10.9482 12.1577 10.9569 12.178 10.9569 12.2C10.9569 12.222 10.9482 12.2422 10.9341 12.2565C10.9201 12.2706 10.902 12.2778 10.8841 12.2778H10.3113H9.81129V12.7778V13.3555C9.81129 13.3776 9.80258 13.3978 9.78844 13.4121C9.77445 13.4262 9.75639 13.4333 9.73847 13.4333C9.72056 13.4333 9.7025 13.4262 9.6885 13.4121C9.67436 13.3978 9.66565 13.3776 9.66565 13.3555V12.7778V12.2778H9.16565H8.59283C8.57492 12.2778 8.55686 12.2706 8.54286 12.2565C8.52872 12.2422 8.52001 12.222 8.52001 12.2C8.52001 12.178 8.52872 12.1577 8.54286 12.1435C8.55686 12.1293 8.57492 12.1222 8.59283 12.1222H9.16565H9.66565V11.6222V11.0444C9.66565 11.0224 9.67436 11.0022 9.6885 10.9879C9.7025 10.9738 9.72056 10.9667 9.73847 10.9667C9.75639 10.9667 9.77445 10.9738 9.78844 10.9879C9.80258 11.0022 9.81129 11.0224 9.81129 11.0444V11.6222ZM13.0574 3.18125L13.0573 3.18129L3.0825 13.2425C3.08246 13.2425 3.08242 13.2425 3.08239 13.2426C2.96099 13.3649 2.79735 13.4328 2.62764 13.4328C2.45787 13.4328 2.29418 13.3648 2.17277 13.2425L2.17272 13.2424L0.690675 11.749C0.690632 11.7489 0.690589 11.7489 0.690546 11.7488C0.630432 11.6882 0.582515 11.616 0.54974 11.5362C0.516937 11.4563 0.5 11.3705 0.5 11.2838C0.5 11.1971 0.516937 11.1114 0.54974 11.0315C0.582539 10.9517 0.6305 10.8794 0.690675 10.8187L0.690703 10.8187L10.6664 0.757412L10.6664 0.757359C10.7266 0.696671 10.7977 0.648761 10.8758 0.616153C10.9361 0.59096 10.9996 0.575247 11.0642 0.569407L10.766 0.870179L8.47476 3.18129L8.12576 3.53332L8.47476 3.88534L9.95622 5.37962L10.3113 5.73777L10.6664 5.37962L12.9576 3.06851L13.2451 2.77857C13.239 2.84381 13.2232 2.90781 13.1983 2.96843C13.1655 3.04829 13.1175 3.12057 13.0574 3.18125ZM11.4762 0.870179L11.1779 0.569336C11.2428 0.57512 11.3066 0.590857 11.3672 0.616153C11.4452 0.648762 11.5164 0.696671 11.5765 0.757358L11.5766 0.757399L13.0573 2.25095L13.0574 2.251C13.1175 2.31168 13.1655 2.38396 13.1983 2.46381C13.2233 2.52468 13.2391 2.58896 13.2452 2.65448L12.9576 2.36446L11.4762 0.870179Z" fill="#2563EB" stroke="black"/>
</svg>
